<svg xmlns="http://www.w3.org/2000/svg" viewBox="0 0 19.3 19.3" width="512" height="512"><style>.a{fill:#FFF;}</style><path d="M19 3c-0.2-0.2-0.5-0.3-0.8-0.3H4.4L4.2 1.5C4.2 1 3.7 0.6 3.3 0.6H1c-0.6 0-1 0.4-1 1s0.4 1 1 1h1.4l1.9 11.2c0 0 0 0.1 0 0.1 0 0.1 0 0.1 0.1 0.2 0 0.1 0.1 0.1 0.1 0.2 0 0 0.1 0.1 0.1 0.1 0.1 0.1 0.1 0.1 0.2 0.1 0 0 0.1 0 0.1 0.1 0.1 0 0.2 0.1 0.4 0.1 0 0 11 0 11 0 0.6 0 1-0.4 1-1s-0.4-1-1-1H6.1l-0.2-1H17.3c0.5 0 0.9-0.4 1-0.9l1-7C19.3 3.5 19.2 3.2 19 3zM17.1 4.6l-0.3 2H13.3v-2H17.1zM12.3 4.6v2h-3v-2H12.3zM12.3 7.6v2h-3v-2H12.3zM8.3 4.6v2h-3c-0.1 0-0.1 0-0.1 0l-0.3-2H8.3zM5.3 7.6H8.3v2H5.6L5.3 7.6zM13.3 9.6v-2h3.4l-0.3 2H13.3z" class="a"/><circle cx="6.8" cy="17.1" r="1.5" class="a"/><circle cx="15.8" cy="17.1" r="1.5" class="a"/></svg>